<?xml version="1.0" standalone="no"?>
<!DOCTYPE svg PUBLIC "-//W3C//DTD SVG 20010904//EN"
 "http://www.w3.org/TR/2001/REC-SVG-20010904/DTD/svg10.dtd">
<svg version="1.0" xmlns="http://www.w3.org/2000/svg"
 width="266.000000pt" height="266.000000pt" viewBox="0 0 266.000000 266.000000"
 preserveAspectRatio="xMidYMid meet">
<metadata>
Created by potrace 1.11, written by Peter Selinger 2001-2013
</metadata>
<g transform="translate(0.000000,266.000000) scale(0.100000,-0.100000)"
fill="#000000" stroke="none">
<path d="M2048 2550 c-16 -32 -49 -80 -75 -107 -82 -85 -132 -113 -309 -177
-376 -137 -524 -244 -592 -428 -30 -81 -26 -211 9 -288 55 -117 177 -202 321
-226 47 -7 153 -7 199 1 43 8 142 45 160 61 8 8 20 14 25 14 6 0 22 12 37 28
l26 27 -72 1 c-133 1 -244 29 -326 82 -108 70 -149 220 -89 323 45 76 123 129
287 194 36 14 69 25 74 25 16 0 190 90 227 118 19 14 43 35 52 46 10 12 22 26
28 33 39 47 70 158 64 234 -3 40 -12 90 -16 94 -2 2 -15 -23 -30 -55z"/>
<path d="M1693 1739 c-14 -5 -10 -8 17 -14 60 -12 202 -76 271 -121 138 -91
194 -202 148 -295 -10 -20 -15 -40 -11 -44 4 -3 2 -5 -4 -3 -7 1 -20 -6 -30
-17 -95 -101 -325 -147 -607 -120 -43 4 -97 8 -120 10 -23 2 -85 7 -137 11
-447 36 -703 -38 -837 -240 -40 -60 -73 -146 -80 -206 -11 -101 -11 -97 13
-219 7 -34 60 -139 92 -181 97 -128 218 -214 373 -265 l70 -23 -15 22 c-132
182 -178 383 -127 547 19 61 82 159 103 159 5 0 6 6 2 13 -4 6 -4 9 1 5 4 -4
20 1 34 11 48 34 156 74 235 86 21 4 48 9 60 11 41 8 176 15 352 19 212 5 266
10 399 37 116 23 225 63 293 107 46 29 132 112 132 126 0 4 9 19 20 35 22 31
49 134 45 173 -11 94 -41 156 -110 222 -105 101 -272 156 -482 159 -45 1 -90
-1 -100 -5z"/>
</g>
</svg>
